<mxfile host="app.diagrams.net" agent="Mozilla/5.0 (Windows NT 10.0; Win64; x64) AppleWebKit/537.36 (KHTML, like Gecko) Chrome/127.0.0.0 Safari/537.36 OPR/113.0.0.0" version="24.7.17">
  <diagram name="Strona-1" id="F5jWTiKt9q87XYjb5o2e">
    <mxGraphModel dx="2220" dy="801" grid="1" gridSize="10" guides="1" tooltips="1" connect="1" arrows="1" fold="1" page="1" pageScale="1" pageWidth="827" pageHeight="1169" math="0" shadow="0">
      <root>
        <mxCell id="0" />
        <mxCell id="1" parent="0" />
        <mxCell id="0DBAb4zutxslMaXPoEHi-1" value="Pracownicy" style="rounded=0;whiteSpace=wrap;html=1;" vertex="1" parent="1">
          <mxGeometry x="130" y="180" width="120" height="60" as="geometry" />
        </mxCell>
        <mxCell id="0DBAb4zutxslMaXPoEHi-2" value="pesel" style="ellipse;whiteSpace=wrap;html=1;" vertex="1" parent="1">
          <mxGeometry x="20" y="30" width="120" height="80" as="geometry" />
        </mxCell>
        <mxCell id="0DBAb4zutxslMaXPoEHi-3" value="" style="endArrow=none;html=1;rounded=0;entryX=1;entryY=1;entryDx=0;entryDy=0;exitX=0.25;exitY=0;exitDx=0;exitDy=0;" edge="1" parent="1" source="0DBAb4zutxslMaXPoEHi-1" target="0DBAb4zutxslMaXPoEHi-2">
          <mxGeometry width="50" height="50" relative="1" as="geometry">
            <mxPoint x="390" y="340" as="sourcePoint" />
            <mxPoint x="440" y="290" as="targetPoint" />
          </mxGeometry>
        </mxCell>
        <mxCell id="0DBAb4zutxslMaXPoEHi-4" value="imie" style="ellipse;whiteSpace=wrap;html=1;" vertex="1" parent="1">
          <mxGeometry x="250" y="30" width="120" height="80" as="geometry" />
        </mxCell>
        <mxCell id="0DBAb4zutxslMaXPoEHi-5" value="" style="endArrow=none;html=1;rounded=0;entryX=0;entryY=1;entryDx=0;entryDy=0;exitX=0.75;exitY=0;exitDx=0;exitDy=0;" edge="1" parent="1" source="0DBAb4zutxslMaXPoEHi-1" target="0DBAb4zutxslMaXPoEHi-4">
          <mxGeometry width="50" height="50" relative="1" as="geometry">
            <mxPoint x="390" y="340" as="sourcePoint" />
            <mxPoint x="440" y="290" as="targetPoint" />
          </mxGeometry>
        </mxCell>
        <mxCell id="0DBAb4zutxslMaXPoEHi-6" value="" style="endArrow=none;html=1;rounded=0;entryX=0;entryY=0.5;entryDx=0;entryDy=0;exitX=1;exitY=0.25;exitDx=0;exitDy=0;" edge="1" parent="1" source="0DBAb4zutxslMaXPoEHi-1" target="0DBAb4zutxslMaXPoEHi-7">
          <mxGeometry width="50" height="50" relative="1" as="geometry">
            <mxPoint x="260" y="240" as="sourcePoint" />
            <mxPoint x="308" y="158" as="targetPoint" />
          </mxGeometry>
        </mxCell>
        <mxCell id="0DBAb4zutxslMaXPoEHi-7" value="nazwisko" style="ellipse;whiteSpace=wrap;html=1;" vertex="1" parent="1">
          <mxGeometry x="370" y="120" width="120" height="80" as="geometry" />
        </mxCell>
        <mxCell id="0DBAb4zutxslMaXPoEHi-9" value="id_wydzialu" style="ellipse;whiteSpace=wrap;html=1;" vertex="1" parent="1">
          <mxGeometry x="-100" y="120" width="120" height="80" as="geometry" />
        </mxCell>
        <mxCell id="0DBAb4zutxslMaXPoEHi-10" value="" style="endArrow=none;html=1;rounded=0;entryX=1;entryY=0.5;entryDx=0;entryDy=0;exitX=0;exitY=0.25;exitDx=0;exitDy=0;" edge="1" parent="1" source="0DBAb4zutxslMaXPoEHi-1" target="0DBAb4zutxslMaXPoEHi-9">
          <mxGeometry width="50" height="50" relative="1" as="geometry">
            <mxPoint x="390" y="340" as="sourcePoint" />
            <mxPoint x="440" y="290" as="targetPoint" />
          </mxGeometry>
        </mxCell>
        <mxCell id="0DBAb4zutxslMaXPoEHi-11" value="Wydzial" style="rounded=0;whiteSpace=wrap;html=1;" vertex="1" parent="1">
          <mxGeometry x="660" y="180" width="120" height="60" as="geometry" />
        </mxCell>
      </root>
    </mxGraphModel>
  </diagram>
</mxfile>
